<svg width="45" height="52" viewBox="0 0 45 52" fill="none" xmlns="http://www.w3.org/2000/svg">
<path d="M42.7354 12.4579L43.9575 9.46171C43.9575 9.46171 42.42 7.80591 40.5277 5.91357C38.6353 4.02123 34.6535 5.1251 34.6535 5.1251L30.1198 0H22.1562H14.1531L9.61941 5.16452C9.61941 5.16452 5.6376 4.06065 3.74526 5.953C1.85292 7.84534 0.315391 9.50114 0.315391 9.50114L1.53753 12.4973L0 16.9128C0 16.9128 4.57316 34.1804 5.08567 36.3093C6.15011 40.4488 6.85974 42.0652 9.85595 44.1941C12.8522 46.323 18.2532 49.95 19.16 50.5019C20.0273 51.0538 21.1706 52 22.1562 52C23.1418 52 24.2456 51.0538 25.1524 50.5019C26.0197 49.95 31.4602 46.2836 34.4564 44.1941C37.4526 42.1046 38.1622 40.4883 39.2267 36.3093C39.7786 34.1804 44.3124 16.9128 44.3124 16.9128L42.7354 12.4579Z" fill="url(#paint0_linear)"/>
<path d="M33.392 8.43671C33.392 8.43671 39.2267 15.4936 39.2267 17.0311C39.2267 18.5686 38.4777 18.9234 37.7286 19.7119C36.9796 20.5004 33.7468 23.9303 33.3526 24.3639C32.9189 24.7976 32.091 25.4678 32.5641 26.6899C33.0766 27.8726 33.8256 29.4102 32.9977 30.9871C32.1698 32.5247 30.7506 33.5891 29.8438 33.392C28.9371 33.2343 26.7688 32.091 25.9803 31.5785C25.1918 31.066 22.7081 29.0159 22.7081 28.2275C22.7081 27.439 25.3101 26.0197 25.7832 25.7043C26.2563 25.3889 28.4246 24.1274 28.464 23.6543C28.5034 23.1812 28.5034 23.0235 27.8332 21.8014C27.2024 20.5792 26.0197 18.9629 26.2169 17.8984C26.414 16.834 28.2669 16.282 29.6073 15.7695C30.9477 15.257 33.5103 14.3109 33.8257 14.1532C34.141 13.9955 34.0622 13.8772 33.0766 13.7589C32.091 13.6801 29.3708 13.2858 28.1092 13.6407C26.8476 13.9955 24.7582 14.508 24.5611 14.7839C24.4034 15.0599 24.2457 15.0599 24.4034 16.0455C24.5611 16.9917 25.5072 21.6437 25.5861 22.4716C25.6649 23.2995 25.862 23.8514 24.9553 24.0485C24.088 24.2457 22.5899 24.6005 22.0774 24.6005C21.5648 24.6005 20.0667 24.2457 19.1994 24.0485C18.3321 23.8514 18.4898 23.2995 18.5686 22.4716C18.6475 21.6437 19.5542 17.0311 19.7513 16.0455C19.909 15.0993 19.7908 15.0599 19.5937 14.7839C19.436 14.508 17.3071 13.9955 16.0455 13.6407C14.784 13.2858 12.0637 13.6407 11.0781 13.7589C10.0925 13.8378 10.0137 13.9955 10.3291 14.1532C10.6445 14.3109 13.207 15.257 14.5474 15.7695C15.8878 16.282 17.7407 16.834 17.9379 17.8984C18.135 18.9629 16.9917 20.5792 16.3215 21.8014C15.6907 23.0235 15.6513 23.1418 15.6907 23.6543C15.7301 24.1274 17.8984 25.3889 18.3715 25.7043C18.8446 26.0197 21.4466 27.439 21.4466 28.2275C21.4466 29.0159 18.9629 31.066 18.1744 31.5785C17.3859 32.091 15.257 33.1949 14.3109 33.392C13.4041 33.5497 11.9849 32.5247 11.157 30.9871C10.3291 29.4496 11.0781 27.9121 11.5906 26.6899C12.1031 25.5072 11.2358 24.837 10.8021 24.3639C10.4868 23.8908 7.29343 20.461 6.54437 19.7119C5.79532 18.9234 5.08569 18.5292 5.08569 17.0311C5.08569 15.533 10.9204 8.43671 10.9204 8.43671C10.9204 8.43671 15.8484 9.38288 16.5186 9.38288C17.1888 9.38288 18.6081 8.83095 19.9485 8.39728C21.2889 7.96362 22.1562 7.96362 22.1562 7.96362C22.1562 7.96362 23.0235 7.96362 24.3639 8.39728C25.7043 8.83095 27.1236 9.38288 27.7938 9.38288C28.464 9.38288 33.392 8.43671 33.392 8.43671ZM29.0159 35.442C29.3708 35.6786 29.1736 36.1122 28.8188 36.3093C28.5034 36.5459 24.0485 39.9758 23.6543 40.37C23.2206 40.7642 22.5899 41.3556 22.1562 41.3556C21.7225 41.3556 21.0918 40.7248 20.6581 40.37C20.2244 39.9758 15.809 36.5459 15.4936 36.3093C15.1782 36.0728 14.9416 35.6391 15.2965 35.442C15.6513 35.2055 16.7946 34.6535 18.3321 33.8256C19.909 32.9977 21.8408 32.3275 22.1562 32.3275C22.4716 32.3275 24.4034 32.9977 25.9803 33.8256C27.5178 34.6535 28.6217 35.2449 29.0159 35.442Z" fill="white"/>
<path d="M34.6535 5.16452L30.1198 0H22.1562H14.1531L9.61939 5.16452C9.61939 5.16452 5.63758 4.06065 3.74524 5.953C3.74524 5.953 9.06745 5.47991 10.8809 8.43669C10.8809 8.43669 15.8089 9.38287 16.4791 9.38287C17.1493 9.38287 18.5686 8.83093 19.909 8.39727C21.2494 7.96361 22.1167 7.96361 22.1167 7.96361C22.1167 7.96361 22.9841 7.96361 24.3245 8.39727C25.6649 8.83093 27.0841 9.38287 27.7543 9.38287C28.4245 9.38287 33.3525 8.43669 33.3525 8.43669C35.166 5.47991 40.4882 5.953 40.4882 5.953C38.6353 4.06065 34.6535 5.16452 34.6535 5.16452Z" fill="url(#paint1_linear)"/>
<defs>
<linearGradient id="paint0_linear" x1="-0.00143669" y1="26.0007" x2="44.3118" y2="26.0007" gradientUnits="userSpaceOnUse">
<stop stop-color="#FF5500"/>
<stop offset="0.4099" stop-color="#FF5500"/>
<stop offset="0.582" stop-color="#FF2000"/>
<stop offset="1" stop-color="#FF2000"/>
</linearGradient>
<linearGradient id="paint1_linear" x1="4.55158" y1="4.6915" x2="40.5157" y2="4.6915" gradientUnits="userSpaceOnUse">
<stop stop-color="#FF452A"/>
<stop offset="1" stop-color="#FF2000"/>
</linearGradient>
</defs>
</svg>
