<svg width="56" height="52" viewBox="0 0 56 52" fill="none" xmlns="http://www.w3.org/2000/svg">
<g clip-path="url(#clip0)">
<path d="M50.5085 17.019C49.4402 14.4484 47.2731 11.6729 45.576 10.7956C46.7865 13.1398 47.6264 15.6573 48.0661 18.2587L48.0705 18.2999C45.2906 11.3691 40.5763 8.57452 36.7261 2.48934C36.5314 2.18165 36.3366 1.87333 36.1469 1.54789C36.0385 1.36201 35.9515 1.19452 35.876 1.04036C35.7164 0.731128 35.5933 0.404316 35.5094 0.0665579C35.5095 0.0509721 35.5038 0.0358902 35.4935 0.0241894C35.4833 0.0124885 35.469 0.00498771 35.4535 0.00311777C35.4384 -0.00103926 35.4224 -0.00103926 35.4072 0.00311777C35.404 0.00311777 35.399 0.00882738 35.3952 0.0100962C35.3914 0.011365 35.3831 0.0170746 35.3774 0.0196122L35.3869 0.00311777C29.211 3.61921 27.1156 10.3134 26.9227 13.6618C24.4564 13.8313 22.0983 14.7402 20.1562 16.2698C19.9536 16.0982 19.7418 15.9377 19.5218 15.7889C18.9616 13.828 18.9377 11.7526 19.4527 9.77925C17.1846 10.878 15.1693 12.4355 13.5343 14.3533H13.5229C12.5485 13.1181 12.617 9.04525 12.6728 8.19451C12.3845 8.31037 12.1093 8.45646 11.8519 8.63035C10.9917 9.2443 10.1875 9.9332 9.44877 10.689C8.60698 11.5425 7.83815 12.4649 7.15033 13.4467V13.4505V13.4461C5.56956 15.6872 4.44835 18.2191 3.85144 20.8959L3.81845 21.0583C3.77214 21.2746 3.60529 22.3582 3.57675 22.5935C3.57675 22.6119 3.57294 22.6291 3.57104 22.6475C3.35581 23.7661 3.22244 24.899 3.172 26.0371V26.1639C3.17739 32.3204 5.49202 38.2508 9.65845 42.7831C13.8249 47.3155 19.5399 50.1201 25.6741 50.6425C31.8084 51.1649 37.9154 49.3673 42.7883 45.6047C47.6612 41.8422 50.9453 36.3887 51.9918 30.3218C52.033 30.0046 52.0666 29.6906 52.1034 29.3702C52.6098 25.1846 52.0616 20.9387 50.5085 17.019V17.019ZM22.1698 36.2655C22.2846 36.3207 22.3925 36.3804 22.5105 36.433L22.5276 36.4438C22.4083 36.3867 22.2891 36.3273 22.1698 36.2655V36.2655ZM48.0724 18.3056V18.2821L48.0769 18.3081L48.0724 18.3056Z" fill="url(#paint0_linear)"/>
<path d="M50.5085 17.019C49.4402 14.4484 47.2731 11.6729 45.576 10.7956C46.7865 13.1398 47.6264 15.6573 48.0661 18.2587V18.2821L48.0705 18.3082C49.9657 23.7313 49.6915 29.6771 47.3054 34.9028C44.4874 40.9493 37.6663 47.1468 26.9893 46.8454C15.4527 46.5187 5.2928 37.9581 3.3934 26.7457C3.04765 24.9776 3.3934 24.0812 3.56723 22.6443C3.33011 23.7604 3.19779 24.8963 3.172 26.0371V26.164C3.17739 32.3204 5.49202 38.2508 9.65845 42.7832C13.8249 47.3155 19.5399 50.1201 25.6741 50.6425C31.8084 51.1649 37.9154 49.3673 42.7883 45.6048C47.6612 41.8422 50.9453 36.3887 51.9918 30.3218C52.033 30.0046 52.0666 29.6906 52.1034 29.3702C52.6098 25.1846 52.0616 20.9387 50.5085 17.019V17.019Z" fill="url(#paint1_radial)"/>
<path d="M50.5085 17.019C49.4402 14.4484 47.2731 11.6729 45.576 10.7956C46.7865 13.1398 47.6264 15.6573 48.0661 18.2587V18.2821L48.0705 18.3082C49.9657 23.7313 49.6915 29.6771 47.3054 34.9028C44.4874 40.9493 37.6663 47.1468 26.9893 46.8454C15.4527 46.5187 5.2928 37.9581 3.3934 26.7457C3.04765 24.9776 3.3934 24.0812 3.56723 22.6443C3.33011 23.7604 3.19779 24.8963 3.172 26.0371V26.164C3.17739 32.3204 5.49202 38.2508 9.65845 42.7832C13.8249 47.3155 19.5399 50.1201 25.6741 50.6425C31.8084 51.1649 37.9154 49.3673 42.7883 45.6048C47.6612 41.8422 50.9453 36.3887 51.9918 30.3218C52.033 30.0046 52.0666 29.6906 52.1034 29.3702C52.6098 25.1846 52.0616 20.9387 50.5085 17.019V17.019Z" fill="url(#paint2_radial)"/>
<path d="M38.5602 19.9094C38.6135 19.9468 38.663 19.9842 38.7131 20.0217C38.0955 18.9265 37.3266 17.9238 36.4292 17.0431C28.7872 9.39987 34.4264 0.470667 35.3774 0.0170696L35.3869 0.00311279C29.211 3.6192 27.1156 10.3134 26.9227 13.6618C27.2095 13.6421 27.4937 13.618 27.7868 13.618C29.9781 13.622 32.1293 14.2063 34.0216 15.3113C35.9139 16.4164 37.4799 18.0028 38.5602 19.9094V19.9094Z" fill="url(#paint3_radial)"/>
<path d="M27.8026 21.4357C27.762 22.0473 25.6013 24.1567 24.8457 24.1567C17.8539 24.1567 16.719 28.3862 16.719 28.3862C17.0286 31.9478 19.5104 34.8813 22.5104 36.433C22.6475 36.5041 22.7864 36.5681 22.9253 36.6309C23.166 36.7375 23.4066 36.8361 23.6473 36.9266C24.6769 37.291 25.7553 37.499 26.8466 37.5438C39.1013 38.1186 41.4753 22.8892 32.6317 18.4699C34.718 18.1985 36.8307 18.7114 38.5602 19.9094C37.4799 18.0028 35.9139 16.4164 34.0216 15.3113C32.1293 14.2063 29.9781 13.622 27.7868 13.618C27.4949 13.618 27.2095 13.6421 26.9227 13.6618C24.4564 13.8313 22.0983 14.7402 20.1562 16.2698C20.5311 16.587 20.9543 17.0108 21.8456 17.8894C23.5141 19.5332 27.7931 21.2359 27.8026 21.4357V21.4357Z" fill="url(#paint4_radial)"/>
<path d="M27.8026 21.4357C27.762 22.0473 25.6013 24.1567 24.8457 24.1567C17.8539 24.1567 16.719 28.3862 16.719 28.3862C17.0286 31.9478 19.5104 34.8813 22.5104 36.433C22.6475 36.5041 22.7864 36.5681 22.9253 36.6309C23.166 36.7375 23.4066 36.8361 23.6473 36.9266C24.6769 37.291 25.7553 37.499 26.8466 37.5438C39.1013 38.1186 41.4753 22.8892 32.6317 18.4699C34.718 18.1985 36.8307 18.7114 38.5602 19.9094C37.4799 18.0028 35.9139 16.4164 34.0216 15.3113C32.1293 14.2063 29.9781 13.622 27.7868 13.618C27.4949 13.618 27.2095 13.6421 26.9227 13.6618C24.4564 13.8313 22.0983 14.7402 20.1562 16.2698C20.5311 16.587 20.9543 17.0108 21.8456 17.8894C23.5141 19.5332 27.7931 21.2359 27.8026 21.4357V21.4357Z" fill="url(#paint5_radial)"/>
<path d="M19.0099 15.4521C19.2091 15.5789 19.3734 15.6893 19.5174 15.7889C18.9571 13.828 18.9333 11.7526 19.4482 9.77924C17.1802 10.878 15.1649 12.4355 13.5299 14.3533C13.6498 14.3501 17.2164 14.286 19.0099 15.4521V15.4521Z" fill="url(#paint6_radial)"/>
<path d="M3.39662 26.7457C5.29412 37.9581 15.456 46.5187 26.9926 46.8455C37.6695 47.1474 44.4906 40.9493 47.3086 34.9028C49.6947 29.6771 49.9689 23.7313 48.0737 18.3082V18.2847C48.0737 18.2663 48.0699 18.2555 48.0737 18.2612L48.0782 18.3024C48.9505 23.9975 46.0538 29.5149 41.5254 33.2458L41.5115 33.2775C32.6882 40.4634 24.2443 37.613 22.5353 36.4495C22.416 36.3924 22.2967 36.333 22.1775 36.2712C17.0331 33.8123 14.9078 29.1253 15.3633 25.1058C14.1422 25.1238 12.942 24.7873 11.9082 24.137C10.8744 23.4868 10.0514 22.5506 9.5389 21.4421C10.8893 20.6148 12.4291 20.1471 14.0114 20.0836C15.5938 20.0201 17.1661 20.3628 18.5785 21.0792C21.4903 22.4011 24.8037 22.5313 27.8103 21.4421C27.8008 21.2423 23.5217 19.5389 21.8533 17.8958C20.9619 17.0171 20.5388 16.594 20.1639 16.2762C19.9612 16.1045 19.7495 15.944 19.5295 15.7953C19.3835 15.6957 19.2192 15.5878 19.0219 15.4584C17.2285 14.2924 13.6619 14.3565 13.5439 14.3596H13.5325C12.558 13.1245 12.6265 9.0516 12.6824 8.20087C12.3941 8.31672 12.1189 8.46282 11.8614 8.6367C11.0012 9.25065 10.197 9.93955 9.45833 10.6953C8.61353 11.5464 7.84151 12.4668 7.15038 13.4467V13.4505V13.4461C5.5696 15.6872 4.4484 18.2191 3.85149 20.8959C3.83943 20.946 2.96586 24.7651 3.39662 26.7457V26.7457Z" fill="url(#paint7_radial)"/>
<path d="M36.4305 17.0432C37.3282 17.9248 38.097 18.9285 38.7144 20.0248C38.8495 20.127 38.9758 20.2285 39.083 20.3268C44.6575 25.4655 41.7367 32.7294 41.5191 33.2464C46.0474 29.5155 48.9416 23.9981 48.0718 18.3031C45.2906 11.3691 40.5764 8.57452 36.7262 2.48934C36.5314 2.18165 36.3366 1.87333 36.147 1.54789C36.0385 1.36201 35.9516 1.19452 35.8761 1.04036C35.7164 0.731128 35.5933 0.404316 35.5094 0.0665579C35.5095 0.0509721 35.5039 0.0358902 35.4936 0.0241894C35.4833 0.0124885 35.469 0.00498771 35.4536 0.00311777C35.4384 -0.00103926 35.4224 -0.00103926 35.4073 0.00311777C35.4041 0.00311777 35.399 0.00882738 35.3952 0.0100962C35.3914 0.011365 35.3831 0.0170746 35.3774 0.0196122C34.4265 0.470672 28.7873 9.39988 36.4305 17.0432V17.0432Z" fill="url(#paint8_radial)"/>
<path d="M39.0791 20.3236C38.9719 20.2253 38.8457 20.1238 38.7106 20.0217C38.6604 19.9842 38.611 19.9468 38.5577 19.9094C36.8282 18.7114 34.7154 18.1984 32.6292 18.4699C41.4727 22.8917 39.1001 38.1186 26.8441 37.5438C25.7528 37.499 24.6744 37.2909 23.6448 36.9266C23.4041 36.8365 23.1635 36.7379 22.9228 36.6309C22.7839 36.5675 22.645 36.504 22.5079 36.433L22.5251 36.4438C24.2341 37.6104 32.6755 40.4608 41.5013 33.2718L41.5153 33.24C41.7354 32.7262 44.6562 25.4604 39.0791 20.3236V20.3236Z" fill="url(#paint9_radial)"/>
<path d="M16.719 28.3862C16.719 28.3862 17.854 24.1567 24.8457 24.1567C25.6013 24.1567 27.764 22.0473 27.8027 21.4357C24.7961 22.525 21.4827 22.3947 18.5708 21.0729C17.1585 20.3565 15.5862 20.0137 14.0038 20.0772C12.4214 20.1407 10.8816 20.6084 9.53125 21.4357C10.0438 22.5443 10.8668 23.4804 11.9006 24.1307C12.9344 24.7809 14.1345 25.1174 15.3557 25.0994C14.9002 29.1196 17.0254 33.8066 22.1698 36.2649C22.2846 36.3201 22.3925 36.3797 22.5105 36.4324C19.5079 34.8813 17.0286 31.9478 16.719 28.3862Z" fill="url(#paint10_radial)"/>
<path d="M50.5085 17.019C49.4402 14.4484 47.2731 11.6729 45.576 10.7956C46.7865 13.1398 47.6264 15.6573 48.0661 18.2587L48.0705 18.2999C45.2906 11.3691 40.5763 8.57452 36.7261 2.48934C36.5314 2.18165 36.3366 1.87333 36.1469 1.54789C36.0385 1.36201 35.9515 1.19452 35.876 1.04036C35.7164 0.731128 35.5933 0.404316 35.5094 0.0665579C35.5095 0.0509721 35.5038 0.0358902 35.4935 0.0241894C35.4833 0.0124885 35.469 0.00498771 35.4535 0.00311777C35.4384 -0.00103926 35.4224 -0.00103926 35.4072 0.00311777C35.404 0.00311777 35.399 0.00882738 35.3952 0.0100962C35.3914 0.011365 35.3831 0.0170746 35.3774 0.0196122L35.3869 0.00311777C29.211 3.61921 27.1156 10.3134 26.9227 13.6618C27.2095 13.6421 27.4937 13.618 27.7868 13.618C29.9781 13.622 32.1293 14.2063 34.0216 15.3113C35.9139 16.4164 37.4799 18.0028 38.5602 19.9094C36.8307 18.7114 34.718 18.1985 32.6317 18.4699C41.4753 22.8917 39.1026 38.1186 26.8466 37.5438C25.7553 37.499 24.6769 37.291 23.6473 36.9266C23.4067 36.8365 23.166 36.7379 22.9254 36.6309C22.7864 36.5675 22.6475 36.5041 22.5105 36.433L22.5276 36.4438C22.4083 36.3867 22.2891 36.3273 22.1698 36.2655C22.2846 36.3207 22.3925 36.3804 22.5105 36.433C19.5078 34.8813 17.0286 31.9478 16.719 28.3863C16.719 28.3863 17.854 24.1567 24.8457 24.1567C25.6013 24.1567 27.7639 22.0473 27.8026 21.4357C27.7931 21.2359 23.5141 19.5325 21.8456 17.8894C20.9543 17.0108 20.5311 16.5876 20.1562 16.2698C19.9536 16.0982 19.7418 15.9377 19.5218 15.7889C18.9616 13.828 18.9377 11.7526 19.4527 9.77925C17.1846 10.878 15.1693 12.4355 13.5343 14.3533H13.5229C12.5485 13.1181 12.617 9.04525 12.6728 8.19451C12.3845 8.31037 12.1093 8.45646 11.8519 8.63035C10.9917 9.2443 10.1875 9.9332 9.44877 10.689C8.60698 11.5425 7.83815 12.4649 7.15033 13.4467C5.56956 15.6878 4.44835 18.2191 3.85144 20.8959L3.81845 21.0583C3.77214 21.2746 3.56469 22.3734 3.53487 22.6094C3.53487 22.591 3.53487 22.6272 3.53487 22.6094C3.34513 23.7436 3.22395 24.8883 3.172 26.0371V26.1639C3.17739 32.3204 5.49202 38.2508 9.65845 42.7831C13.8249 47.3155 19.5399 50.1201 25.6741 50.6425C31.8084 51.1649 37.9154 49.3673 42.7883 45.6047C47.6612 41.8422 50.9453 36.3887 51.9918 30.3218C52.033 30.0046 52.0666 29.6906 52.1034 29.3702C52.6098 25.1846 52.0616 20.9387 50.5085 17.019Z" fill="url(#paint11_linear)"/>
</g>
<defs>
<linearGradient id="paint0_linear" x1="47.254" y1="7.85955" x2="6.43727" y2="47.24" gradientUnits="userSpaceOnUse">
<stop offset="0.048" stop-color="#FFF44F"/>
<stop offset="0.111" stop-color="#FFE847"/>
<stop offset="0.225" stop-color="#FFC830"/>
<stop offset="0.368" stop-color="#FF980E"/>
<stop offset="0.401" stop-color="#FF8B16"/>
<stop offset="0.462" stop-color="#FF672A"/>
<stop offset="0.534" stop-color="#FF3647"/>
<stop offset="0.705" stop-color="#E31587"/>
</linearGradient>
<radialGradient id="paint1_radial" cx="0" cy="0" r="1" gradientUnits="userSpaceOnUse" gradientTransform="translate(45.368 5.63019) scale(51.2578)">
<stop offset="0.129" stop-color="#FFBD4F"/>
<stop offset="0.186" stop-color="#FFAC31"/>
<stop offset="0.247" stop-color="#FF9D17"/>
<stop offset="0.283" stop-color="#FF980E"/>
<stop offset="0.403" stop-color="#FF563B"/>
<stop offset="0.467" stop-color="#FF3750"/>
<stop offset="0.71" stop-color="#F5156C"/>
<stop offset="0.782" stop-color="#EB0878"/>
<stop offset="0.86" stop-color="#E50080"/>
</radialGradient>
<radialGradient id="paint2_radial" cx="0" cy="0" r="1" gradientUnits="userSpaceOnUse" gradientTransform="translate(26.6379 26.5859) scale(51.2578)">
<stop offset="0.3" stop-color="#960E18"/>
<stop offset="0.351" stop-color="#B11927" stop-opacity="0.74"/>
<stop offset="0.435" stop-color="#DB293D" stop-opacity="0.343"/>
<stop offset="0.497" stop-color="#F5334B" stop-opacity="0.094"/>
<stop offset="0.53" stop-color="#FF3750" stop-opacity="0"/>
</radialGradient>
<radialGradient id="paint3_radial" cx="0" cy="0" r="1" gradientUnits="userSpaceOnUse" gradientTransform="translate(32.8175 -6.00215) scale(37.1341)">
<stop offset="0.132" stop-color="#FFF44F"/>
<stop offset="0.252" stop-color="#FFDC3E"/>
<stop offset="0.506" stop-color="#FF9D12"/>
<stop offset="0.526" stop-color="#FF980E"/>
</radialGradient>
<radialGradient id="paint4_radial" cx="0" cy="0" r="1" gradientUnits="userSpaceOnUse" gradientTransform="translate(20.9683 39.9746) scale(24.4061)">
<stop offset="0.353" stop-color="#3A8EE6"/>
<stop offset="0.472" stop-color="#5C79F0"/>
<stop offset="0.669" stop-color="#9059FF"/>
<stop offset="1" stop-color="#C139E6"/>
</radialGradient>
<radialGradient id="paint5_radial" cx="0" cy="0" r="1" gradientUnits="userSpaceOnUse" gradientTransform="translate(29.4388 22.3851) rotate(-13.5916) scale(12.94 15.1495)">
<stop offset="0.206" stop-color="#9059FF" stop-opacity="0"/>
<stop offset="0.278" stop-color="#8C4FF3" stop-opacity="0.064"/>
<stop offset="0.747" stop-color="#7716A8" stop-opacity="0.45"/>
<stop offset="0.975" stop-color="#6E008B" stop-opacity="0.6"/>
</radialGradient>
<radialGradient id="paint6_radial" cx="0" cy="0" r="1" gradientUnits="userSpaceOnUse" gradientTransform="translate(25.9908 3.53303) scale(17.5577)">
<stop stop-color="#FFE226"/>
<stop offset="0.121" stop-color="#FFDB27"/>
<stop offset="0.295" stop-color="#FFC82A"/>
<stop offset="0.502" stop-color="#FFA930"/>
<stop offset="0.732" stop-color="#FF7E37"/>
<stop offset="0.792" stop-color="#FF7139"/>
</radialGradient>
<radialGradient id="paint7_radial" cx="0" cy="0" r="1" gradientUnits="userSpaceOnUse" gradientTransform="translate(39.7916 -7.60361) scale(74.9108)">
<stop offset="0.113" stop-color="#FFF44F"/>
<stop offset="0.456" stop-color="#FF980E"/>
<stop offset="0.622" stop-color="#FF5634"/>
<stop offset="0.716" stop-color="#FF3647"/>
<stop offset="0.904" stop-color="#E31587"/>
</radialGradient>
<radialGradient id="paint8_radial" cx="0" cy="0" r="1" gradientUnits="userSpaceOnUse" gradientTransform="translate(33.4779 -3.43819) rotate(83.976) scale(54.9039 36.033)">
<stop stop-color="#FFF44F"/>
<stop offset="0.06" stop-color="#FFE847"/>
<stop offset="0.168" stop-color="#FFC830"/>
<stop offset="0.304" stop-color="#FF980E"/>
<stop offset="0.356" stop-color="#FF8B16"/>
<stop offset="0.455" stop-color="#FF672A"/>
<stop offset="0.57" stop-color="#FF3647"/>
<stop offset="0.737" stop-color="#E31587"/>
</radialGradient>
<radialGradient id="paint9_radial" cx="0" cy="0" r="1" gradientUnits="userSpaceOnUse" gradientTransform="translate(25.5773 10.0363) scale(46.7681)">
<stop offset="0.137" stop-color="#FFF44F"/>
<stop offset="0.48" stop-color="#FF980E"/>
<stop offset="0.592" stop-color="#FF5634"/>
<stop offset="0.655" stop-color="#FF3647"/>
<stop offset="0.904" stop-color="#E31587"/>
</radialGradient>
<radialGradient id="paint10_radial" cx="0" cy="0" r="1" gradientUnits="userSpaceOnUse" gradientTransform="translate(37.9227 12.7734) scale(51.1873)">
<stop offset="0.094" stop-color="#FFF44F"/>
<stop offset="0.231" stop-color="#FFE141"/>
<stop offset="0.509" stop-color="#FFAF1E"/>
<stop offset="0.626" stop-color="#FF980E"/>
</radialGradient>
<linearGradient id="paint11_linear" x1="46.7636" y1="7.64893" x2="12.0327" y2="42.3793" gradientUnits="userSpaceOnUse">
<stop offset="0.167" stop-color="#FFF44F" stop-opacity="0.8"/>
<stop offset="0.266" stop-color="#FFF44F" stop-opacity="0.634"/>
<stop offset="0.489" stop-color="#FFF44F" stop-opacity="0.217"/>
<stop offset="0.6" stop-color="#FFF44F" stop-opacity="0"/>
</linearGradient>
<clipPath id="clip0">
<rect width="55.4585" height="52" fill="white"/>
</clipPath>
</defs>
</svg>
