<?xml version="1.0" encoding="utf-8"?>
<!-- Generator: Adobe Illustrator 22.1.0, SVG Export Plug-In . SVG Version: 6.00 Build 0)  -->
<svg version="1.1" id="Calque_1" xmlns="http://www.w3.org/2000/svg" xmlns:xlink="http://www.w3.org/1999/xlink" x="0px" y="0px"
	 viewBox="0 0 361.7 70.7" style="enable-background:new 0 0 361.7 70.7;" xml:space="preserve">
<style type="text/css">
	.st0{fill:#DB581F;}
	.st1{fill:#D1D72C;}
	.st2{fill:#F7CA5C;}
	.st3{fill:#F1874C;}
	.st4{fill:#B3C868;}
	.st5{fill:#F7A532;}
	.st6{fill:#CC2B2B;}
	.st7{fill:#D7302F;}
	.st8{fill:#DE3D29;}
	.st9{fill:#EC6550;}
</style>
<g>
	<g>
		<g>
			<path class="st0" d="M104,14.2l7.5,30.9h0.2l7.6-30.9H130v42.1h-8.2V44.1l0.7-16.3l-0.2,0l-8,28.6h-5.5l-7.9-28.4l-0.2,0
				l0.7,16.1v12.2h-8.2V14.2H104z"/>
			<path class="st0" d="M155.7,47.3h-11.1l-2.3,9h-8.3l11.8-42.1h8.6l11.8,42.1H158L155.7,47.3z M146.3,40.7h7.7l-3.8-14.9h-0.2
				L146.3,40.7z"/>
			<path class="st0" d="M199,56.3h-8.2l-12.9-26.9l-0.2,0.1v26.8h-8.2V14.2h8.2l12.9,26.9l0.2-0.1V14.2h8.2V56.3z"/>
			<path class="st0" d="M233.2,50c-1.1,1.8-2.8,3.4-5.1,4.8c-2.3,1.4-5.2,2.1-8.6,2.1c-4.5,0-8.1-1.3-10.8-4
				c-2.7-2.6-4.1-6.4-4.1-11.3V28.8c0-4.8,1.3-8.6,3.9-11.2c2.6-2.7,6.1-4,10.4-4c4.7,0,8.2,1.1,10.5,3.4c2.3,2.3,3.5,5.5,3.6,9.8
				L233,27h-7.7c-0.1-2.4-0.6-4.1-1.6-5.2c-1-1.1-2.5-1.6-4.6-1.6c-2,0-3.6,0.7-4.7,2.1c-1.1,1.4-1.7,3.6-1.7,6.5v12.9
				c0,3,0.6,5.1,1.7,6.5c1.1,1.4,2.8,2.1,5,2.1c1.6,0,2.8-0.2,3.6-0.7c0.8-0.4,1.4-1.1,1.9-2v-7.5h-5.5v-5.8h13.8V50z"/>
			<path class="st0" d="M267.8,41.2c0,4.9-1.3,8.8-4,11.6c-2.7,2.8-6.2,4.2-10.7,4.2c-4.5,0-8-1.4-10.7-4.2c-2.7-2.8-4-6.6-4-11.6
				V29.4c0-4.9,1.3-8.8,4-11.6c2.7-2.8,6.2-4.2,10.6-4.2c4.4,0,8,1.4,10.7,4.2c2.7,2.8,4,6.7,4,11.6V41.2z M259.6,29.3
				c0-3-0.6-5.3-1.7-6.8c-1.1-1.5-2.7-2.3-4.9-2.3c-2.2,0-3.8,0.8-4.9,2.3c-1.1,1.5-1.6,3.8-1.6,6.8v11.9c0,3.1,0.5,5.3,1.6,6.9
				c1.1,1.5,2.7,2.3,4.9,2.3c2.1,0,3.7-0.8,4.9-2.3c1.1-1.5,1.7-3.8,1.7-6.9V29.3z"/>
		</g>
		<path class="st0" d="M281.3,41.2v15.1h-8.2V14.2h14.6c4.2,0,7.5,1.2,9.9,3.7c2.4,2.5,3.6,5.7,3.6,9.8c0,4-1.2,7.3-3.7,9.8
			c-2.4,2.5-5.7,3.7-9.9,3.7H281.3z M281.3,34.6h6.4c1.8,0,3.1-0.6,4-1.9c0.9-1.3,1.4-2.9,1.4-4.9c0-2-0.5-3.7-1.4-5
			c-0.9-1.3-2.3-2-4-2h-6.4V34.6z"/>
		<path class="st0" d="M321.5,47.3h-11.1l-2.3,9h-8.3l11.8-42.1h8.6l11.8,42.1h-8.3L321.5,47.3z M312.1,40.7h7.7L316,25.9h-0.2
			L312.1,40.7z"/>
		<path class="st0" d="M345.6,32.2h0.2l7-18h8.9l-12,27.1v15h-8.2V40.8l-11.8-26.6h9L345.6,32.2z"/>
	</g>
	<g>
		<polygon class="st1" points="11.8,47.1 0,35.3 11.8,23.6 		"/>
		<polygon class="st2" points="23.6,35.3 11.8,23.6 23.6,11.8 		"/>
		<polygon class="st3" points="35.3,23.6 23.6,11.8 35.3,0 		"/>
		<polygon class="st4" points="23.6,58.9 11.8,47.1 23.6,35.3 		"/>
		<polygon class="st3" points="35.3,47.1 23.6,35.3 35.3,23.6 		"/>
		<polygon class="st5" points="35.3,70.7 23.6,58.9 35.3,47.1 		"/>
		<polygon class="st6" points="58.9,47.1 70.7,35.3 58.9,23.6 		"/>
		<polygon class="st7" points="47.1,35.3 58.9,23.6 47.1,11.8 		"/>
		<polygon class="st5" points="35.3,23.6 47.1,11.8 35.3,0 		"/>
		<polygon class="st8" points="47.1,58.9 58.9,47.1 47.1,35.3 		"/>
		<polygon class="st8" points="35.3,47.1 47.1,35.3 35.3,23.6 		"/>
		<polygon class="st9" points="35.3,70.7 47.1,58.9 35.3,47.1 		"/>
	</g>
</g>
</svg>
